<svg id="visual" viewBox="0 0 1400 800" width="1400" height="800" xmlns="http://www.w3.org/2000/svg" xmlns:xlink="http://www.w3.org/1999/xlink" version="1.1"><path d="M0 436L233 436L233 464L467 464L467 448L700 448L700 422L933 422L933 468L1167 468L1167 448L1400 448L1400 463L1400 801L1400 801L1167 801L1167 801L933 801L933 801L700 801L700 801L467 801L467 801L233 801L233 801L0 801Z" fill="#0e131f"></path><path d="M0 540L233 540L233 527L467 527L467 528L700 528L700 545L933 545L933 522L1167 522L1167 552L1400 552L1400 538L1400 801L1400 801L1167 801L1167 801L933 801L933 801L700 801L700 801L467 801L467 801L233 801L233 801L0 801Z" fill="#1b2233"></path><path d="M0 618L233 618L233 628L467 628L467 621L700 621L700 596L933 596L933 625L1167 625L1167 612L1400 612L1400 598L1400 801L1400 801L1167 801L1167 801L933 801L933 801L700 801L700 801L467 801L467 801L233 801L233 801L0 801Z" fill="#293149"></path><path d="M0 696L233 696L233 706L467 706L467 686L700 686L700 686L933 686L933 691L1167 691L1167 689L1400 689L1400 719L1400 801L1400 801L1167 801L1167 801L933 801L933 801L700 801L700 801L467 801L467 801L233 801L233 801L0 801Z" fill="#38405f"></path></svg>