<svg id="visual" viewBox="0 0 900 600" width="900" height="600" xmlns="http://www.w3.org/2000/svg" xmlns:xlink="http://www.w3.org/1999/xlink" version="1.1"><rect x="0" y="0" width="900" height="600" fill="#0E131F"></rect><path d="M0 408L30 411C60 414 120 420 180 426.7C240 433.3 300 440.7 360 435C420 429.3 480 410.7 540 401.7C600 392.7 660 393.3 720 395.3C780 397.3 840 400.7 870 402.3L900 404L900 601L870 601C840 601 780 601 720 601C660 601 600 601 540 601C480 601 420 601 360 601C300 601 240 601 180 601C120 601 60 601 30 601L0 601Z" fill="#d8847b"></path><path d="M0 493L30 489C60 485 120 477 180 470.3C240 463.7 300 458.3 360 460.3C420 462.3 480 471.7 540 477.5C600 483.3 660 485.7 720 481C780 476.3 840 464.7 870 458.8L900 453L900 601L870 601C840 601 780 601 720 601C660 601 600 601 540 601C480 601 420 601 360 601C300 601 240 601 180 601C120 601 60 601 30 601L0 601Z" fill="#c76056"></path><path d="M0 501L30 503.7C60 506.3 120 511.7 180 510.3C240 509 300 501 360 501.8C420 502.7 480 512.3 540 513.7C600 515 660 508 720 507.8C780 507.7 840 514.3 870 517.7L900 521L900 601L870 601C840 601 780 601 720 601C660 601 600 601 540 601C480 601 420 601 360 601C300 601 240 601 180 601C120 601 60 601 30 601L0 601Z" fill="#ac463e"></path><path d="M0 567L30 562.8C60 558.7 120 550.3 180 547.7C240 545 300 548 360 551.8C420 555.7 480 560.3 540 563.8C600 567.3 660 569.7 720 571.8C780 574 840 576 870 577L900 578L900 601L870 601C840 601 780 601 720 601C660 601 600 601 540 601C480 601 420 601 360 601C300 601 240 601 180 601C120 601 60 601 30 601L0 601Z" fill="#8a3833"></path></svg>