<svg id="visual" viewBox="0 0 1400 800" width="1400" height="800" xmlns="http://www.w3.org/2000/svg" xmlns:xlink="http://www.w3.org/1999/xlink" version="1.1"><path d="M0 360L233 360L233 349L467 349L467 337L700 337L700 342L933 342L933 359L1167 359L1167 367L1400 367L1400 371L1400 0L1400 0L1167 0L1167 0L933 0L933 0L700 0L700 0L467 0L467 0L233 0L233 0L0 0Z" fill="#0e131f"></path><path d="M0 275L233 275L233 280L467 280L467 245L700 245L700 268L933 268L933 269L1167 269L1167 282L1400 282L1400 247L1400 0L1400 0L1167 0L1167 0L933 0L933 0L700 0L700 0L467 0L467 0L233 0L233 0L0 0Z" fill="#1b2233"></path><path d="M0 189L233 189L233 180L467 180L467 173L700 173L700 173L933 173L933 200L1167 200L1167 196L1400 196L1400 189L1400 0L1400 0L1167 0L1167 0L933 0L933 0L700 0L700 0L467 0L467 0L233 0L233 0L0 0Z" fill="#293149"></path><path d="M0 89L233 89L233 85L467 85L467 110L700 110L700 112L933 112L933 108L1167 108L1167 105L1400 105L1400 90L1400 0L1400 0L1167 0L1167 0L933 0L933 0L700 0L700 0L467 0L467 0L233 0L233 0L0 0Z" fill="#38405f"></path></svg>